<?xml version="1.0" encoding="UTF-8" standalone="no"?>
<svg
   xmlns:dc="http://purl.org/dc/elements/1.1/"
   xmlns:cc="http://creativecommons.org/ns#"
   xmlns:rdf="http://www.w3.org/1999/02/22-rdf-syntax-ns#"
   xmlns:svg="http://www.w3.org/2000/svg"
   xmlns="http://www.w3.org/2000/svg"
   xmlns:sodipodi="http://sodipodi.sourceforge.net/DTD/sodipodi-0.dtd"
   xmlns:inkscape="http://www.inkscape.org/namespaces/inkscape"
   inkscape:export-ydpi="150"
   inkscape:export-xdpi="150"
   inkscape:export-filename="/Users/tafintse/Downloads/globecom.png"
   sodipodi:docname="globecom.svg"
   inkscape:version="1.0beta2 (2b71d25, 2019-12-03)"
   id="svg2948"
   version="1.1"
   viewBox="0 0 300 300"
   height="300mm"
   width="300mm">
  <defs
     id="defs2942" />
  <sodipodi:namedview
     inkscape:window-maximized="0"
     inkscape:window-y="23"
     inkscape:window-x="0"
     inkscape:window-height="1302"
     inkscape:window-width="2560"
     showgrid="false"
     inkscape:document-rotation="0"
     inkscape:current-layer="layer1"
     inkscape:document-units="mm"
     inkscape:cy="547.22068"
     inkscape:cx="616.1806"
     inkscape:zoom="0.42376731"
     inkscape:pageshadow="2"
     inkscape:pageopacity="0.0"
     borderopacity="1.0"
     bordercolor="#666666"
     pagecolor="#ffffff"
     id="base" />
  <metadata
     id="metadata2945">
    <rdf:RDF>
      <cc:Work
         rdf:about="">
        <dc:format>image/svg+xml</dc:format>
        <dc:type
           rdf:resource="http://purl.org/dc/dcmitype/StillImage" />
        <dc:title></dc:title>
      </cc:Work>
    </rdf:RDF>
  </metadata>
  <g
     id="layer1"
     inkscape:groupmode="layer"
     inkscape:label="Layer 1">
    <path
       style="fill:#404041;fill-opacity:1;stroke:none;stroke-width:0.495557"
       d="m 17.138715,215.66346 -0.0013,-12.89794 3.159671,0.0687 3.159654,0.0687 0.02357,12.76061 0.02357,12.76061 -3.182907,0.0686 -3.182896,0.0685 z"
       id="path2295"
       inkscape:connector-curvature="0" />
    <path
       style="fill:#404041;fill-opacity:1;stroke:none;stroke-width:0.495557"
       d="m 29.35989,216.28301 c -0.02437,-6.7458 -0.05223,-12.51593 -0.06188,-12.82256 l -0.01768,-0.55753 7.912976,-0.0654 c 4.35216,-0.0361 7.988262,0.0197 8.080256,0.12389 0.09202,0.10424 0.09912,1.08139 0.01593,2.17163 l -0.1513,1.98222 -4.769754,-0.0957 -4.769741,-0.0956 v 3.16172 3.1617 l 4.468945,-0.10541 4.468945,-0.1054 -0.07085,2.11891 -0.07084,2.11892 -4.398089,0.0676 -4.398062,0.0677 v 3.37836 3.3784 l 5.143347,-0.16526 5.143346,-0.16529 -0.07809,2.04647 c -0.04299,1.12556 -0.123898,2.18585 -0.180006,2.35621 -0.07875,0.23932 -1.933542,0.30971 -8.162469,0.30971 h -8.060592 z"
       id="path2297"
       inkscape:connector-curvature="0" />
    <path
       style="fill:#404041;fill-opacity:1;stroke:none;stroke-width:0.495557"
       d="m 49.969763,215.91134 c 0,-6.95021 -0.02787,-12.72037 -0.06188,-12.82258 -0.03401,-0.1022 3.605418,-0.21524 8.087744,-0.2512 l 8.149677,-0.0653 -0.156659,1.30426 c -0.08614,0.71735 -0.157637,1.72687 -0.158816,2.24339 l -0.0026,0.9391 -4.831689,-0.17193 -4.831689,-0.17189 v 3.16279 3.16282 l 4.521959,-0.0895 4.521961,-0.0895 -0.08867,1.98223 c -0.04876,1.09024 -0.138926,2.06586 -0.200445,2.16807 -0.06148,0.10221 -2.056543,0.18583 -4.43337,0.18583 h -4.321498 v 3.38412 3.38411 l 5.195906,-0.16697 5.195892,-0.16697 -0.137278,2.04817 c -0.07554,1.12646 -0.18014,2.18754 -0.232537,2.35788 -0.07367,0.23947 -1.923419,0.30973 -8.155866,0.30973 h -8.060607 z"
       id="path2299"
       inkscape:connector-curvature="0" />
    <path
       style="fill:#404041;fill-opacity:1;stroke:none;stroke-width:0.495557"
       d="m 70.659306,215.66355 v -12.88451 h 8.026167 8.026157 l -0.159192,1.52303 c -0.0876,0.83766 -0.159177,1.84336 -0.159177,2.2349 v 0.71187 l -4.769754,-0.0668 -4.769727,-0.0668 -0.06979,3.06025 -0.06978,3.06024 4.529781,-0.0853 4.529782,-0.0853 -0.01768,0.55596 c -0.0093,0.30575 -0.03763,1.2807 -0.06187,2.16649 l -0.04419,1.61055 h -4.467205 -4.467192 l 0.0691,3.28305 0.06912,3.28309 5.163652,-0.062 5.163668,-0.062 -0.176042,2.16821 c -0.09684,1.19248 -0.224931,2.25178 -0.284668,2.354 -0.05974,0.10221 -3.697906,0.18583 -8.084836,0.18583 l -7.976246,-10e-6 z"
       id="path2301"
       inkscape:connector-curvature="0" />
    <text
       xml:space="preserve"
       style="font-style:normal;font-variant:normal;font-weight:bold;font-stretch:normal;font-size:45.1511px;line-height:1.25;font-family:sans-serif;-inkscape-font-specification:'sans-serif Bold';font-variant-ligatures:normal;font-variant-caps:normal;font-variant-numeric:normal;font-variant-east-asian:normal;fill:#404041;fill-opacity:1;stroke:none;stroke-width:0.112879"
       x="10.630537"
       y="273.75699"
       id="text2896"><tspan
         style="stroke-width:0.112879"
         sodipodi:role="line"
         id="tspan2894"
         x="10.630537"
         y="273.75699">GLOBECOM</tspan></text>
    <path
       inkscape:connector-curvature="0"
       id="path2916"
       d="m 208.77405,34.688219 c 5.44685,5.729319 12.13112,15.935259 14.20455,21.688326 1.25558,3.483783 2.30422,10.199284 2.30422,14.756162 0,7.321845 -1.89759,15.838137 -5.04364,22.635718 -5.57017,12.035225 -17.25955,22.503855 -30.72886,27.519745 -12.6257,4.70175 -24.3638,5.91233 -53.80779,5.54931 -18.87791,-0.23275 -24.55109,0.10701 -30.30234,1.815 -4.02694,1.19588 -7.494785,3.67238 -8.842985,6.31502 -0.906029,1.77594 -1.350072,4.58573 -1.173082,7.42269 0.156618,2.51039 0.155154,2.51693 -0.404702,1.80519 -2.534817,-3.22249 -5.953262,-10.09647 -7.203524,-14.48522 -0.94104,-3.30325 -0.925944,-8.63284 0.03229,-11.40732 3.007147,-8.70672 13.260623,-14.46548 29.113763,-16.35146 1.31166,-0.15604 8.95803,-0.40151 16.99192,-0.54552 14.97198,-0.26838 16.91487,-0.41012 25.02398,-1.825738 12.92099,-2.255633 28.01318,-7.807823 36.88678,-13.570128 10.56054,-6.857734 16.94086,-15.471323 18.41733,-24.863789 0.44764,-2.847675 0.37506,-8.188575 -0.15236,-11.213067 -0.84948,-4.87131 -3.2633,-10.830744 -6.13151,-15.138007 -0.64368,-0.966624 -1.12222,-1.805601 -1.06343,-1.864401 0.0588,-0.0588 0.90452,0.732091 1.87938,1.757489 z"
       style="fill:#00aeef;fill-opacity:1;stroke:none;stroke-width:0.59621" />
    <path
       inkscape:connector-curvature="0"
       id="path2918"
       d="m 229.62808,89.61959 c 0.0304,1.324796 -0.55078,6.436817 -1.0282,9.044373 -1.02077,5.575647 -2.73976,11.427167 -4.68112,15.934887 -3.62966,8.42779 -7.9854,14.85513 -14.42602,21.28696 -5.78671,5.77886 -11.35453,9.77851 -18.92953,13.59804 -5.18422,2.61401 -8.36181,3.84103 -16.73731,6.46299 -4.97793,1.55834 -10.36217,3.86517 -13.72254,5.87927 -4.68345,2.80714 -7.58001,6.22441 -8.23347,9.71358 -0.58749,3.13683 0.50079,6.99631 3.04843,10.81085 2.62559,3.93124 7.58813,9.21374 13.35635,14.21743 1.63205,1.41575 2.92689,2.61456 2.87741,2.66404 -0.13381,0.13381 -4.91018,-1.06974 -9.28141,-2.33882 -7.19314,-2.08835 -14.18861,-4.689 -20.05176,-7.45459 -5.53633,-2.61139 -12.20104,-6.67335 -16.10321,-9.81435 -8.2164,-6.61376 -13.01277,-14.01356 -13.67055,-21.09081 -0.30286,-3.25891 1.16297,-7.31735 3.38624,-9.37535 2.65287,-2.45566 8.37969,-4.29744 15.45965,-4.97193 3.43861,-0.32759 13.42339,-0.32262 21.93523,0.0109 14.90366,0.58403 23.44366,-0.28581 33.16275,-3.3777 14.86694,-4.72956 26.74969,-14.3095 34.79839,-28.05471 3.4291,-5.85608 6.69733,-14.237762 8.05197,-20.650065 0.24159,-1.143533 0.51361,-2.359853 0.60446,-2.702915 0.16009,-0.604534 0.16577,-0.598132 0.18424,0.207907 z"
       style="fill:#404041;fill-opacity:1;stroke:none;stroke-width:0.415835" />
    <path
       inkscape:connector-curvature="0"
       id="path2920"
       d="m 182.24652,19.412855 c 3.77874,1.656831 7.60116,3.857738 10.81168,6.225256 2.22597,1.641481 6.75894,6.281056 8.06994,8.259726 1.5131,2.283709 3.04337,5.454467 3.71277,7.692932 0.50535,1.689821 0.56098,2.203867 0.57397,5.301882 0.0171,4.054298 -0.32565,5.645618 -1.94741,9.044375 -3.17297,6.6496 -10.11745,12.69209 -19.80542,17.233018 -3.30376,1.548536 -3.55772,1.655584 -5.88574,2.480847 -4.93566,1.749679 -9.33263,2.874463 -15.07398,3.856076 -8.60296,1.470878 -15.85896,2.014605 -33.68255,2.52407 -4.17393,0.119345 -8.61816,0.30334 -9.87603,0.40898 -1.25792,0.105677 -3.17595,0.249241 -4.2623,0.319146 -8.55733,0.550545 -16.360469,2.236241 -21.499458,4.644451 -7.695039,3.60602 -12.57721,9.980635 -14.277037,18.641406 l -0.285646,1.45542 -0.141109,-1.14354 c -0.225841,-1.83021 -0.20185,-7.074488 0.043,-9.400092 0.282674,-2.684901 1.417663,-7.398796 2.352596,-9.770826 5.126766,-13.007458 15.947538,-22.534334 33.079914,-29.124384 8.0366,-3.091316 18.62056,-5.566861 30.45983,-7.124414 6.43774,-0.846945 13.98218,-2.365414 18.71254,-3.766295 14.28884,-4.231586 22.29801,-9.918645 23.59724,-16.755671 0.26782,-1.409399 0.26865,-1.807583 0.007,-3.177081 -0.54276,-2.836772 -2.30839,-5.380868 -5.07966,-7.319353 -2.29325,-1.604085 -2.24598,-1.664427 0.39623,-0.505929 z"
       style="fill:#404041;fill-opacity:1;stroke:none;stroke-width:0.415835" />
    <path
       inkscape:connector-curvature="0"
       id="path2922"
       d="m 161.14295,16.562286 c 4.42842,0.338488 9.1052,1.257789 11.57036,2.274348 3.42666,1.413042 4.46289,3.414749 3.17597,6.135072 -1.00005,2.113963 -3.77959,3.848509 -8.81843,5.50313 -5.35889,1.7597 -10.28668,2.711777 -27.96709,5.403436 -15.00736,2.284715 -19.54858,3.271069 -26.09357,5.667533 -5.60996,2.054106 -10.24224,4.640673 -15.520236,8.666133 -1.606708,1.225416 -6.114547,5.737183 -7.693625,7.700302 -3.133722,3.895897 -5.910235,8.319784 -8.592371,13.690406 -0.590821,1.183061 -1.119306,2.105941 -1.174397,2.050849 -0.159324,-0.159325 1.776858,-5.036701 3.600315,-9.069436 5.026107,-11.115745 12.684945,-21.7108 21.375504,-29.570346 3.42715,-3.099461 9.4473,-7.436648 13.30669,-9.586775 5.08447,-2.832636 10.82921,-5.176029 16.63336,-6.785057 2.69464,-0.747013 8.41863,-1.776134 11.62745,-2.090512 2.6001,-0.254731 11.17876,-0.248315 14.57007,0.01078 z"
       style="fill:#00aeef;fill-opacity:1;stroke:none;stroke-width:0.415835" />
  </g>
</svg>
