<?xml version="1.0" encoding="UTF-8" standalone="no"?>
<svg
   xmlns:dc="http://purl.org/dc/elements/1.1/"
   xmlns:cc="http://creativecommons.org/ns#"
   xmlns:rdf="http://www.w3.org/1999/02/22-rdf-syntax-ns#"
   xmlns:svg="http://www.w3.org/2000/svg"
   xmlns="http://www.w3.org/2000/svg"
   xmlns:sodipodi="http://sodipodi.sourceforge.net/DTD/sodipodi-0.dtd"
   xmlns:inkscape="http://www.inkscape.org/namespaces/inkscape"
   inkscape:export-ydpi="150"
   inkscape:export-xdpi="150"
   inkscape:export-filename="/Users/tafintse/Downloads/ICC.png"
   sodipodi:docname="ICC.svg"
   inkscape:version="1.0beta2 (2b71d25, 2019-12-03)"
   id="svg3623"
   version="1.1"
   viewBox="0 0 300 300"
   height="300mm"
   width="300mm">
  <defs
     id="defs3617" />
  <sodipodi:namedview
     inkscape:window-maximized="0"
     inkscape:window-y="23"
     inkscape:window-x="0"
     inkscape:window-height="1302"
     inkscape:window-width="2560"
     showgrid="false"
     inkscape:document-rotation="0"
     inkscape:current-layer="layer1"
     inkscape:document-units="mm"
     inkscape:cy="566.15905"
     inkscape:cx="447.84924"
     inkscape:zoom="0.45057642"
     inkscape:pageshadow="2"
     inkscape:pageopacity="0.0"
     borderopacity="1.0"
     bordercolor="#666666"
     pagecolor="#ffffff"
     id="base" />
  <metadata
     id="metadata3620">
    <rdf:RDF>
      <cc:Work
         rdf:about="">
        <dc:format>image/svg+xml</dc:format>
        <dc:type
           rdf:resource="http://purl.org/dc/dcmitype/StillImage" />
        <dc:title></dc:title>
      </cc:Work>
    </rdf:RDF>
  </metadata>
  <g
     id="layer1"
     inkscape:groupmode="layer"
     inkscape:label="Layer 1">
    <path
       style="fill:#404041;fill-opacity:1;stroke:none;stroke-width:0.666362"
       d="m 90.76384,197.87762 c -6.087723,-6.40343 -13.558495,-17.81023 -15.875895,-24.24021 -1.403308,-3.89371 -2.575332,-11.39936 -2.575332,-16.4924 0,-8.18337 2.120862,-17.7017 5.637094,-25.2991 6.225578,-13.45131 19.290349,-25.15171 34.344473,-30.7578 14.11128,-5.254964 27.23049,-6.607966 60.13894,-6.202241 21.09913,0.26013 27.43984,-0.119664 33.86777,-2.028551 4.50079,-1.336584 8.37667,-4.104473 9.88347,-7.058075 1.01263,-1.984903 1.50894,-5.125264 1.31113,-8.296053 -0.17506,-2.805778 -0.17342,-2.813075 0.4523,-2.017598 2.83308,3.601658 6.65375,11.28445 8.05111,16.18958 1.05178,3.691938 1.0349,9.648618 -0.0361,12.749538 -3.36098,9.73118 -14.82089,16.16754 -32.53935,18.2754 -1.46598,0.17441 -10.01205,0.44879 -18.99125,0.60974 -16.73359,0.29994 -18.9051,0.45837 -27.96834,2.04055 -14.44129,2.52102 -31.30929,8.72651 -41.22696,15.16682 -11.803125,7.66463 -18.934161,17.29171 -20.584345,27.78931 -0.500304,3.18274 -0.419208,9.15205 0.170281,12.53243 0.949435,5.44447 3.647275,12.1051 6.85297,16.91918 0.719406,1.08034 1.254254,2.01803 1.188538,2.08376 -0.06576,0.0658 -1.010939,-0.81822 -2.1005,-1.96428 z"
       id="path2287"
       inkscape:connector-curvature="0" />
    <path
       style="fill:#00aeef;fill-opacity:1;stroke:none;stroke-width:0.464762"
       d="m 67.456071,136.48291 c -0.03391,-1.48068 0.615598,-7.1942 1.149169,-10.10856 1.14091,-6.2317 3.062163,-12.77172 5.231942,-17.80983 4.056722,-9.419422 8.924967,-16.602989 16.123401,-23.791639 6.467606,-6.458805 12.690547,-10.92904 21.156847,-15.197995 5.7942,-2.921599 9.34567,-4.292967 18.70666,-7.223444 5.56364,-1.741716 11.58139,-4.319957 15.33715,-6.57105 5.23451,-3.13744 8.4719,-6.956784 9.20224,-10.856491 0.65661,-3.505931 -0.55972,-7.819507 -3.40712,-12.082872 -2.93453,-4.393813 -8.48096,-10.297853 -14.92788,-15.890279 -1.82408,-1.58234 -3.27127,-2.922206 -3.21597,-2.977514 0.1496,-0.149581 5.48791,1.195611 10.37348,2.614005 8.0395,2.334069 15.85807,5.240741 22.41109,8.331715 6.18772,2.918677 13.63665,7.458542 17.99794,10.969137 9.18318,7.391949 14.54391,15.662432 15.27905,23.572419 0.33852,3.642348 -1.29979,8.178307 -3.78464,10.478444 -2.96501,2.744604 -9.36567,4.8031 -17.27869,5.556947 -3.84321,0.366143 -15.00282,0.360576 -24.51618,-0.01226 -16.65724,-0.652726 -26.20207,0.319426 -37.06474,3.775136 -16.616224,5.286024 -29.897128,15.993198 -38.892846,31.355691 -3.832587,6.54514 -7.485361,15.91299 -8.999402,23.07981 -0.270016,1.27808 -0.574022,2.63751 -0.675569,3.02095 -0.178929,0.67566 -0.185276,0.66849 -0.205932,-0.23238 z"
       id="path2289"
       inkscape:connector-curvature="0" />
    <path
       style="fill:#00aeef;fill-opacity:1;stroke:none;stroke-width:0.464762"
       d="m 120.41266,214.95031 c -4.22333,-1.85176 -8.49552,-4.31164 -12.0838,-6.95772 -2.48788,-1.83463 -7.55422,-7.02011 -9.019474,-9.23159 -1.69113,-2.55241 -3.401457,-6.09625 -4.149627,-8.59809 -0.564781,-1.88865 -0.626986,-2.46319 -0.641499,-5.92572 -0.01905,-4.53134 0.363961,-6.3099 2.17655,-10.10856 3.54632,-7.43201 11.30788,-14.18545 22.13577,-19.26067 3.6925,-1.73076 3.97635,-1.8504 6.57828,-2.77275 5.5164,-1.95556 10.43071,-3.21269 16.84761,-4.30982 9.61521,-1.64393 17.72496,-2.25164 37.6457,-2.82105 4.66505,-0.13333 9.63218,-0.33902 11.03808,-0.4571 1.40593,-0.11805 3.54964,-0.27858 4.76382,-0.35669 9.5642,-0.61532 18.28545,-2.49935 24.02912,-5.19093 8.60046,-4.03031 14.05706,-11.15497 15.95689,-20.8348 l 0.31926,-1.62667 0.15771,1.27809 c 0.25241,2.04556 0.22562,7.90689 -0.0481,10.50613 -0.31594,3.00082 -1.58448,8.26937 -2.6294,10.92049 -5.73,14.53794 -17.82398,25.18577 -36.97217,32.55122 -8.98221,3.45507 -20.81148,6.22187 -34.0438,7.96269 -7.19523,0.94661 -15.62736,2.64373 -20.91429,4.20944 -15.97011,4.72948 -24.92167,11.08569 -26.37375,18.72717 -0.29933,1.57526 -0.30027,2.02029 -0.006,3.55092 0.60663,3.17056 2.58,6.01398 5.67735,8.18056 2.56306,1.79283 2.51024,1.86027 -0.44286,0.56545 z"
       id="path2291"
       inkscape:connector-curvature="0" />
    <path
       style="fill:#404041;fill-opacity:1;stroke:none;stroke-width:0.464762"
       d="m 143.99933,218.1363 c -4.94946,-0.37834 -10.17653,-1.4058 -12.93175,-2.54195 -3.82985,-1.5793 -4.988,-3.81655 -3.54966,-6.85695 1.11771,-2.36269 4.2243,-4.30134 9.85602,-6.15064 5.98944,-1.96675 11.49703,-3.03086 31.25775,-6.03921 16.77316,-2.55355 21.84873,-3.65595 29.16381,-6.3344 6.27004,-2.29579 11.44737,-5.18668 17.34639,-9.6858 1.79574,-1.36961 6.83398,-6.41223 8.59886,-8.60634 3.50244,-4.35429 6.60565,-9.2987 9.60337,-15.30125 0.66034,-1.32225 1.251,-2.35372 1.31258,-2.29215 0.17807,0.17807 -1.98592,5.62933 -4.02392,10.13657 -5.6175,12.42363 -14.1775,24.26532 -23.89061,33.04966 -3.83038,3.46413 -10.55887,8.31164 -14.87237,10.71477 -5.68274,3.16592 -12.10342,5.78504 -18.59048,7.5834 -3.0117,0.83492 -9.4092,1.98512 -12.99559,2.33649 -2.90601,0.2847 -12.49407,0.27752 -16.2844,-0.0122 z"
       id="path2293"
       inkscape:connector-curvature="0" />
    <path
       style="fill:#404041;fill-opacity:1;stroke:none;stroke-width:0.750353"
       d="m 174.58066,258.71832 v -18.60636 l 5.11663,5e-5 5.11666,5e-5 -0.0608,18.50732 -0.0607,18.50731 -5.05595,0.099 -5.05594,0.099 z"
       id="path2303"
       inkscape:connector-curvature="0" />
    <path
       style="fill:#404041;fill-opacity:1;stroke:none;stroke-width:0.750353"
       d="m 207.57952,277.07409 c -10.3589,-1.69685 -16.91028,-9.882 -16.09762,-20.11212 1.03913,-13.08153 11.30629,-20.20606 25.32768,-17.57529 1.66853,0.31307 3.57872,0.77604 4.24485,1.02882 l 1.21114,0.45962 -0.15586,3.17334 c -0.21035,4.28341 -0.19409,4.25689 -1.9631,3.20415 -2.0573,-1.22433 -4.78972,-1.76455 -7.89895,-1.56175 -4.86204,0.31712 -7.9452,2.6086 -9.52802,7.08142 -0.73574,2.07908 -0.84888,3.05713 -0.71131,6.14993 0.24764,5.56787 2.03517,8.51993 6.38049,10.53727 1.72067,0.79883 2.31207,0.88178 5.51022,0.77273 3.03434,-0.10342 3.94343,-0.28635 5.93937,-1.19501 1.29617,-0.59009 2.44738,-1.11355 2.55831,-1.16322 0.11089,-0.0496 0.11306,1.6395 0.004,3.75369 l -0.19683,3.84401 -2.55556,0.82634 c -2.9179,0.9435 -8.75597,1.3189 -12.06967,0.77607 z"
       id="path2305"
       inkscape:connector-curvature="0" />
    <path
       style="fill:#404041;fill-opacity:1;stroke:none;stroke-width:0.750353"
       d="m 240.90023,276.92564 c -9.71576,-2.00549 -15.34993,-8.79686 -15.34993,-18.50259 0,-12.52051 8.66725,-20.30033 21.71085,-19.48797 1.6708,0.10406 4.40008,0.55664 6.06504,1.00575 l 3.02719,0.81657 -0.24839,2.67017 c -0.13665,1.46858 -0.24841,3.13006 -0.24841,3.69215 v 1.02198 l -2.26314,-1.16533 c -2.13737,-1.10062 -2.48183,-1.16538 -6.199,-1.16538 -3.60501,0 -4.09402,0.0845 -5.81688,1.00467 -6.50167,3.47259 -7.8084,14.77876 -2.385,20.63528 1.80003,1.94374 4.4833,2.85013 8.44968,2.85421 3.09144,0.003 3.6384,-0.10711 6.08982,-1.2282 1.48133,-0.67745 2.76028,-1.17085 2.84214,-1.09648 0.0818,0.0744 0.0213,1.83509 -0.13452,3.91271 l -0.28337,3.7775 -2.60977,0.73476 c -3.46961,0.97681 -9.27701,1.2157 -12.64631,0.5202 z"
       id="path2307"
       inkscape:connector-curvature="0" />
    <path
       inkscape:connector-curvature="0"
       id="path2934"
       d="m 42.972952,257.92612 -0.0023,-19.39855 4.752156,0.10332 4.752121,0.10332 0.03551,19.19202 0.03552,19.192 -4.787119,0.10321 -4.787073,0.10321 z"
       style="fill:#404041;fill-opacity:1;stroke:none;stroke-width:0.745318" />
    <path
       inkscape:connector-curvature="0"
       id="path2936"
       d="m 61.353661,258.878 c -0.03654,-10.14565 -0.07859,-18.82398 -0.09314,-19.28514 l -0.02658,-0.83853 11.901136,-0.0985 c 6.545652,-0.0542 12.01436,0.0297 12.152713,0.18633 0.138343,0.15667 0.149111,1.62642 0.02394,3.26613 l -0.227549,2.98127 -7.17372,-0.14393 -7.173701,-0.1439 v 4.75522 4.75521 l 6.721317,-0.1586 6.721302,-0.15864 -0.106541,3.18686 -0.106655,3.18685 -6.614737,0.10173 -6.614698,0.10172 v 5.08109 5.0811 l 7.735605,-0.24856 7.735611,-0.24858 -0.117447,3.0779 c -0.06461,1.69283 -0.186468,3.28751 -0.270739,3.5437 -0.11842,0.35998 -2.908069,0.46584 -12.27638,0.46584 H 61.420232 Z"
       style="fill:#404041;fill-opacity:1;stroke:none;stroke-width:0.745318" />
    <path
       inkscape:connector-curvature="0"
       id="path2938"
       d="m 92.350945,258.31903 c 0,-10.45313 -0.04182,-19.13146 -0.09311,-19.28518 -0.05118,-0.15371 5.422531,-0.32374 12.163995,-0.37781 l 12.25712,-0.0983 -0.2356,1.96162 c -0.12959,1.07888 -0.23707,2.59721 -0.23886,3.37404 l -0.003,1.41241 -7.26689,-0.25858 -7.26686,-0.25853 v 4.75684 4.75688 l 6.80103,-0.13446 6.80105,-0.13453 -0.13325,2.98131 c -0.0733,1.6397 -0.20896,3.10701 -0.30148,3.26076 -0.0926,0.15371 -3.09307,0.27947 -6.66781,0.27947 h -6.49954 v 5.08974 5.08969 l 7.81465,-0.25111 7.81463,-0.25111 -0.20645,3.08042 c -0.11352,1.69425 -0.27096,3.29007 -0.34976,3.54626 -0.11077,0.36017 -2.89282,0.46583 -12.26645,0.46583 H 92.350786 Z"
       style="fill:#404041;fill-opacity:1;stroke:none;stroke-width:0.745318" />
    <path
       inkscape:connector-curvature="0"
       id="path2940"
       d="m 123.46808,257.94635 v -19.37832 h 12.07139 12.07138 l -0.23946,2.29065 c -0.13165,1.25984 -0.23939,2.7724 -0.23939,3.36127 v 1.07068 l -7.17372,-0.10045 -7.17368,-0.10045 -0.10492,4.60262 -0.10492,4.60263 6.81284,-0.12835 6.81281,-0.12836 -0.0267,0.83615 c -0.0148,0.45986 -0.0566,1.92617 -0.0931,3.25842 l -0.0665,2.42228 h -6.71871 -6.71866 l 0.10407,4.93774 0.10406,4.93777 7.76615,-0.0933 7.76616,-0.0934 -0.26478,3.26098 c -0.14563,1.7935 -0.33828,3.38669 -0.4281,3.54041 -0.0898,0.15373 -5.56168,0.2795 -12.15963,0.2795 l -11.99631,-10e-6 z"
       style="fill:#404041;fill-opacity:1;stroke:none;stroke-width:0.745318" />
  </g>
</svg>
